<svg xmlns="http://www.w3.org/2000/svg" width="4545.16" height="986.7" viewBox="0 0 4545.16 986.7"><title>logo</title><path d="M496.09,145.19H594V902H496.09v-82.5q-67.1,95.72-184.8,95.7-106.71,0-181.5-79.2Q56.09,757.9,56.09,638q0-117.7,72.59-196.89T311.3,361.9q118.78,0,184.8,92.39ZM325.59,823.9q74.81,0,122.11-53.91,48.38-55,48.39-132T447.7,507.09q-47.3-52.78-122.11-52.8-73.69,0-123.19,52.81T152.91,638q0,77,49.5,132Q251.91,823.9,325.59,823.9Z" transform="translate(-56.09 -145.19)" fill="#555"/><path d="M1184.69,902v-82.5q-67.1,95.72-184.8,95.7-106.71,0-181.5-79.2-73.71-78.09-73.7-198,0-117.7,72.59-196.89t182.61-79.2q118.78,0,184.8,92.39v-79.2h97.91V902Zm-170.5-78.09q74.81,0,122.11-53.91,48.38-55,48.39-132t-48.39-130.91q-47.3-52.78-122.11-52.8-73.69,0-123.19,52.81T841.5,638q0,77,49.5,132Q940.5,823.9,1014.19,823.9Z" transform="translate(-56.09 -145.19)" fill="#555"/><path d="M1412.39,462l-3.3-85.8h88V245.29h96.8V376.19h149.59v86.89H1595V741.4q0,83.6,72.61,83.59,45.09,0,69.3-27.5l45.09,73.7q-45.09,45.09-125.39,45.09-74.81,0-115.5-44-41.81-45.09-41.81-128.7V462Z" transform="translate(-56.09 -145.19)" fill="#555"/><path d="M2274.78,902v-82.5q-67.1,95.72-184.8,95.7-106.71,0-181.5-79.2-73.71-78.09-73.7-198,0-117.7,72.59-196.89T2090,361.9q118.78,0,184.8,92.39v-79.2h97.91V902Zm-170.5-78.09q74.81,0,122.11-53.91,48.38-55,48.39-132t-48.39-130.91q-47.3-52.78-122.11-52.8-73.69,0-123.19,52.81T1931.59,638q0,77,49.5,132Q2030.59,823.9,2104.28,823.9Z" transform="translate(-56.09 -145.19)" fill="#555"/><path d="M2561.87,902V145.19h97.91V902Z" transform="translate(-56.09 -145.19)" fill="#555"/><path d="M2876.48,375.08l178.2,412.5,149.59-411.39h99l-227.7,612.7q-50.6,143-171.59,143-71.51,0-126.5-48.41l46.2-75.91q35.18,33,82.5,33,29.67,0,49.48-19.8T2992,953.69l16.5-45.11-238.7-533.5Z" transform="translate(-56.09 -145.19)" fill="#555"/><path d="M3470.49,508.19l-2.2,4.39q0,30.82,30.8,50.61,29.7,18.7,75.91,30.8,49.5,13.22,89.09,27.5Q3709.17,638,3740,672.1t30.8,89.09q0,69.3-53.91,113.3t-151.8,44q-141.89,0-211.2-85.8l57.2-63.8q57.19,70.41,160.61,70.39,49.5,0,74.8-20.89,26.39-22,26.39-56.11,0-33-30.8-53.89t-73.7-34.11q-39.61-12.09-86.89-29.7-45.12-16.5-75.91-50.59t-30.8-85.8q0-60.49,51.7-103.41,50.58-42.89,138.59-42.89,137.48,0,195.8,81.39l-58.3,58.3q-47.3-60.49-135.3-60.5-42.91,0-70.41,18.7Q3470.49,477.41,3470.49,508.19Z" transform="translate(-56.09 -145.19)" fill="#555"/><path d="M4149.17,915.19l1.09,2.2q-118.8,0-198-80.31t-79.2-198q0-114.37,74.81-195.8,73.69-80.3,184.78-80.3t184.81,77q74.79,78.09,74.8,189.2,0,24.21-3.3,35.2H3971q7.69,71.51,58.3,118.8,49.5,46.22,123.2,46.2,89.09,0,147.41-58.31l51.69,67.11q-33,35.2-86.89,56.09Q4211.87,915.19,4149.17,915.19ZM4136,447.69v-1.11q-62.72,0-105.59,42.91-41.81,42.91-53.91,110h319q-12.09-73.69-53.91-112.2Q4198.67,447.7,4136,447.69Z" transform="translate(-56.09 -145.19)" fill="none"/><path d="M4533.05,911.9q-27.52,0-47.3-19.8T4466,844.79q0-28.59,19.8-48.39t47.3-19.81q28.59,0,48.41,19.81t19.8,48.39q0,27.52-19.8,47.31T4533.05,911.9Z" transform="translate(-56.09 -145.19)" fill="#0081e0"/><path d="M4241,893.49l1.77,1.7q-111.84,40.09-213.49-8.78T3887.92,726.76q-38.6-107.67,4.35-209.56,42.27-100.45,146.84-137.95t200,10.11q96.76,48.27,134.26,152.86,8.17,22.79,8.78,34.25L3988.62,717.55q31.37,64.72,95,92.15,62.19,26.8,131.57,1.91Q4299,781.55,4334.24,707l71.3,45.73q-19.18,44.27-62.86,82.13Q4300,872.33,4241,893.49Zm-170.2-435.62-.37-1q-59,21.17-84.92,76-24.88,54.51-13.62,121.74l300.29-107.65q-36.25-65.28-88.61-87.43Q4129.84,436.72,4070.81,457.87Z" transform="translate(-56.09 -145.19)" fill="#555"/></svg>